<svg xmlns="http://www.w3.org/2000/svg" viewBox="0 0 96 96" role="img" aria-labelledby="title desc">
  <title id="title">Biểu tượng SweetTime</title>
  <desc id="desc">Chữ S cách điệu cùng trái tim và nhành lúa vàng.</desc>
  <rect width="96" height="96" rx="24" fill="#FFF6E8"/>
  <path d="M64 28c-4-8-16-5-16 4 0 8 9 13 16 19 7-6 16-11 16-19 0-9-12-12-16-4Z" fill="#C24A36"/>
  <path d="M56 28c-6-7-27-8-34 3-9 14 9 21 20 24 10 3 17 7 13 14-5 9-25 8-34-2" fill="none" stroke="#C24A36" stroke-width="9" stroke-linecap="round"/>
  <path d="M75 59c-10 1-17 7-21 16m7-8-2-8m8 3 6-6m-11 12 9 2" fill="none" stroke="#C9A24C" stroke-width="3" stroke-linecap="round" stroke-linejoin="round"/>
</svg>
