<svg xmlns="http://www.w3.org/2000/svg" viewBox="0 0 720 210" role="img" aria-labelledby="title desc">
  <title id="title">SweetTime Bakery &amp; Tea</title>
  <desc id="desc">Logo SweetTime màu đỏ đất nung và xanh navy, điểm xuyết trái tim vàng.</desc>
  <g transform="translate(22 8)">
    <text x="16" y="122" fill="#C24A36" font-family="Georgia, 'Times New Roman', serif" font-size="112" font-weight="700">SweetTime</text>
    <path d="M515 28c-7-13-27-8-27 7 0 12 15 21 27 30 12-9 27-18 27-30 0-15-20-20-27-7Z" fill="#C24A36"/>
    <path d="M147 158c18 0 27-9 36-22-3 19-14 32-37 34m-5-20c-13-9-25-5-35 2 14 1 25 7 35 18m424-12c-18 0-27-9-36-22 3 19 14 32 37 34m5-20c13-9 25-5 35 2-14 1-25 7-35 18" fill="none" stroke="#C9A24C" stroke-width="5" stroke-linecap="round" stroke-linejoin="round"/>
    <text x="198" y="174" fill="#1F2E4A" font-family="Arial, sans-serif" font-size="31" font-weight="700" letter-spacing="7">BAKERY &amp; TEA</text>
  </g>
</svg>
